<?xml version="1.0" encoding="utf-8"?>
<!-- Generator: Adobe Illustrator 19.2.1, SVG Export Plug-In . SVG Version: 6.00 Build 0)  -->
<svg version="1.1" id="Layer_1" xmlns="http://www.w3.org/2000/svg" xmlns:xlink="http://www.w3.org/1999/xlink" x="0px" y="0px"
	 viewBox="0 0 795.1 419.8" style="enable-background:new 0 0 795.1 419.8;" xml:space="preserve">
<style type="text/css">
	.st0{fill:#FFFFFF;}
	.st1{opacity:0.9;}
</style>
<g>
	<path class="st0" d="M386,116.7c-1.3,0.4-2.5,0.5-3.8,0.5s-2.5-0.2-3.8-0.5l-44.8-14.1l-1.4,24.7c-0.6,11,22.4,20,50,20
		c27.6,0,50.6-9,50-20l-1.4-24.7L386,116.7z"/>
	<path class="st0" d="M470.5,74.8L383,47.3c-0.3-0.1-0.5-0.1-0.8-0.1s-0.5,0-0.8,0.1L294,74.8c-1,0.4-1.7,1.3-1.7,2.4s0.7,2,1.7,2.4
		l26,8.1c-4.8,6.8-7.2,16.6-7.7,25.8c-3,1.7-5.1,4.9-5.1,8.7c0,3.5,1.8,6.6,4.5,8.4l-4.5,33.8c-0.1,0.7,0.2,1.2,0.6,1.8
		s1.2,0.7,1.9,0.7h15c0.7,0,1.4-0.1,1.9-0.7s0.7-1.2,0.6-1.9l-4.5-33.8c2.7-1.8,4.5-4.8,4.5-8.3c0-3.7-2-6.8-4.9-8.5
		c0.6-10.5,3.8-19.1,8.2-22.7l50.9,16.1c0.3,0.1,0.5,0.1,0.8,0.1s0.5,0,0.8-0.1l87.5-27.5c1-0.4,1.7-1.3,1.7-2.4
		S471.5,75.2,470.5,74.8z M393.3,96.6l-70.4-22.9L371.5,58l13.1,4.3L353,72.5l14.8,4.8l26.7-8.7l12.6,4.1l-26.7,8.7l16.8,5.5
		l31.5-10.2l13.1,4.2L393.3,96.6z"/>
</g>
</svg>
